<?xml version="1.0" encoding="utf-8"?>
<!-- Generator: Adobe Illustrator 24.1.1, SVG Export Plug-In . SVG Version: 6.00 Build 0)  -->
<svg version="1.1" id="Capa_1" xmlns="http://www.w3.org/2000/svg" xmlns:xlink="http://www.w3.org/1999/xlink" x="0px" y="0px"
	 viewBox="0 0 512 512" style="enable-background:new 0 0 512 512;" xml:space="preserve" fill="#ffffff">
<g>
	<g>
		<path d="M477.2,120.5h-326c-19.2,0-34.8,15.6-34.8,34.8v201.4c0,19.2,15.6,34.8,34.8,34.8h326c19.2,0,34.8-15.6,34.8-34.8V155.3
			C512,136.1,496.4,120.5,477.2,120.5z M472.7,143.7l-4.6,3.9l-140,116.6c-8,6.7-19.6,6.7-27.6,0l-140-116.6l-4.6-3.9H472.7z
			 M139.7,160.4l114.1,95l-114.1,75.9V160.4z M477.2,368.3h-326c-5.6,0-10.3-4-11.4-9.3l132.4-88.1l13.3,11.1
			c8.3,6.9,18.5,10.4,28.6,10.4s20.3-3.5,28.6-10.4l13.3-11.1L488.6,359C487.5,364.3,482.8,368.3,477.2,368.3z M488.8,331.3
			l-114.1-75.9l114.1-95V331.3z"/>
	</g>
</g>
<g>
	<path d="M92.9,246.1H10.5c-5.8,0-10.5-4.7-10.5-10.5s4.7-10.5,10.5-10.5h82.4c5.8,0,10.5,4.7,10.5,10.5S98.7,246.1,92.9,246.1z"/>
</g>
<g>
	<path d="M59.8,281.1H10.5c-5.8,0-10.5-4.7-10.5-10.5s4.7-10.5,10.5-10.5h49.3c5.8,0,10.5,4.7,10.5,10.5S65.6,281.1,59.8,281.1z"/>
</g>
<g>
	<path d="M59.8,316.1H10.5c-5.8,0-10.5-4.7-10.5-10.5s4.7-10.5,10.5-10.5h49.3c5.8,0,10.5,4.7,10.5,10.5S65.6,316.1,59.8,316.1z"/>
</g>
</svg>
